<?xml version="1.0" standalone="no"?>
<svg viewBox="0 0 200 200" xmlns="http://www.w3.org/2000/svg">
  <path fill="#3B82F6" d="M29.5,-58C35,-47.9,34,-33.5,44,-23.1C54,-12.7,75.1,-6.3,80.4,3.1C85.7,12.4,75.2,24.9,64.3,33.7C53.3,42.6,42,47.8,31.2,53.3C20.4,58.8,10.2,64.5,-2.3,68.5C-14.8,72.5,-29.6,74.7,-35.7,66.5C-41.7,58.3,-39.1,39.6,-40,26.8C-40.8,14,-45.3,7,-49.2,-2.2C-53.1,-11.5,-56.3,-22.9,-51.9,-29.7C-47.5,-36.5,-35.5,-38.5,-25.5,-46C-15.6,-53.5,-7.8,-66.5,2.1,-70.2C12,-73.8,24,-68.1,29.5,-58Z" transform="translate(100 100)" />
</svg>
